<svg width="206" height="210" viewBox="0 0 206 210" fill="none" xmlns="http://www.w3.org/2000/svg">
<circle cx="103.05" cy="107.558" r="102.12" fill="#D6CFFF"/>
<g clip-path="url(#clip0)">
<path d="M142.554 169.89L144.252 202.446C144.252 202.446 72.4319 134.182 63.4845 114.209C54.537 94.2354 71.3793 44.8278 71.3793 44.8278L108.748 65.3267L142.554 169.89Z" fill="#9F616A"/>
<path d="M32.4314 31.1619L21.3787 32.2131C21.3787 32.2131 15.5891 44.8278 33.4841 45.879L32.4314 31.1619Z" fill="#9F616A"/>
<path d="M32.4314 50.6096L21.3787 51.6608C21.3787 51.6608 15.5891 64.2755 33.4841 65.3267L32.4314 50.6096Z" fill="#9F616A"/>
<path d="M32.4314 71.6341L21.3787 72.6853C21.3787 72.6853 15.5891 85.3 33.4841 86.3513L32.4314 71.6341Z" fill="#9F616A"/>
<path d="M35.5894 92.6586L24.5366 93.7098C24.5366 93.7098 18.7471 106.325 36.642 107.376L35.5894 92.6586Z" fill="#9F616A"/>
<path d="M27.0505 36.2296H27.8892V13.2859C27.8892 11.542 28.2331 9.81526 28.9014 8.20415C29.5696 6.59304 30.5491 5.12915 31.7838 3.89605C33.0186 2.66296 34.4844 1.68482 36.0977 1.01748C37.711 0.350135 39.4401 0.00665417 41.1863 0.00665283H89.8613C91.6075 0.00664927 93.3366 0.350124 94.9499 1.01746C96.5632 1.6848 98.0291 2.66294 99.2638 3.89603C100.499 5.12912 101.478 6.593 102.146 8.20411C102.815 9.81521 103.158 11.542 103.158 13.2858V139.157C103.158 140.901 102.815 142.628 102.146 144.239C101.478 145.85 100.499 147.314 99.2638 148.547C98.0291 149.78 96.5632 150.758 94.9499 151.425C93.3367 152.093 91.6076 152.436 89.8614 152.436H41.1864C37.6598 152.436 34.2776 151.037 31.7839 148.547C29.2902 146.057 27.8892 142.679 27.8892 139.157V52.5614H27.0505V36.2296Z" fill="#3F3D56"/>
<path d="M40.6496 3.46144H47.0033C46.7111 4.17683 46.5996 4.953 46.6786 5.72157C46.7575 6.49015 47.0245 7.22755 47.456 7.8688C47.8876 8.51005 48.4704 9.03549 49.1532 9.39881C49.8359 9.76213 50.5977 9.95219 51.3714 9.95225H79.2566C80.0303 9.9522 80.7921 9.76214 81.4748 9.39881C82.1576 9.03549 82.7404 8.51006 83.172 7.8688C83.6035 7.22755 83.8705 6.49015 83.9495 5.72157C84.0284 4.95299 83.9169 4.17682 83.6247 3.46143H89.559C92.1927 3.46142 94.7184 4.50622 96.5807 6.36597C98.443 8.22573 99.4892 10.7481 99.4892 13.3782V139.065C99.4892 140.367 99.2323 141.657 98.7333 142.86C98.2343 144.063 97.5028 145.156 96.5807 146.077C95.6586 146.998 94.5639 147.728 93.3591 148.227C92.1544 148.725 90.8631 148.982 89.559 148.982H40.6496C39.3456 148.982 38.0543 148.725 36.8495 148.227C35.6448 147.728 34.5501 146.998 33.628 146.077C32.7059 145.156 31.9744 144.063 31.4754 142.86C30.9763 141.657 30.7195 140.367 30.7195 139.065V13.3782C30.7195 12.0759 30.9763 10.7864 31.4754 9.58321C31.9744 8.38006 32.7059 7.28684 33.628 6.36598C34.5501 5.44513 35.6448 4.71466 36.8495 4.2163C38.0543 3.71794 39.3456 3.46143 40.6496 3.46144Z" fill="white"/>
<path d="M75.5832 38.6725H54.6257V43.723H75.5832V38.6725Z" fill="#9EFFAE"/>
<path d="M76.5809 60.374H53.6279V65.4245H76.5809V60.374Z" fill="#E5E5E5"/>
<path d="M90.7189 71.223H39.49V76.2734H90.7189V71.223Z" fill="#E5E5E5"/>
<path d="M90.7189 82.0719H39.49V87.1223H90.7189V82.0719Z" fill="#E5E5E5"/>
<path d="M192.133 186.846L133.222 119.728L131.117 76.6274L109.011 39.8344L102.695 24.066C102.695 24.066 87.9584 25.6429 100.064 55.6028L105.064 71.634C100.557 81.3287 98.2217 91.8886 98.2217 102.577V139.313C98.2217 147.963 139.498 195.079 144.303 202.277L192.133 186.846Z" fill="#9F616A"/>
<path opacity="0.2" d="M104.428 42.9522L108.823 40.7954L108.673 40.4908L104.613 42.4839L98.4832 26.4354L98.166 26.5565L104.428 42.9522Z" fill="black"/>
<path opacity="0.2" d="M21.4375 32.0534L21.3201 32.3717L27.8302 34.7666L27.9476 34.4483L21.4375 32.0534Z" fill="black"/>
<path opacity="0.2" d="M21.4375 51.7228L21.3201 52.041L27.8302 54.4359L27.9476 54.1176L21.4375 51.7228Z" fill="black"/>
<path opacity="0.2" d="M21.4375 72.7485L21.3201 73.0668L27.8302 75.4616L27.9476 75.1434L21.4375 72.7485Z" fill="black"/>
<path opacity="0.2" d="M24.8481 93.7806L24.7012 94.0862L27.8707 95.6054L28.0176 95.2997L24.8481 93.7806Z" fill="black"/>
<path d="M65.1304 130.708C73.238 130.708 79.8106 124.144 79.8106 116.047C79.8106 107.95 73.238 101.387 65.1304 101.387C57.0227 101.387 50.4502 107.95 50.4502 116.047C50.4502 124.144 57.0227 130.708 65.1304 130.708Z" fill="#9EFFAE"/>
<path d="M63.7314 122.236L59.3379 116.594L61.8929 114.609L63.9732 117.28L71.0015 109.871L73.3518 112.095L63.7314 122.236Z" fill="white"/>
<ellipse cx="66.1129" cy="68.4485" rx="31.505" ry="31.505" fill="#F1ED90"/>
<line x1="58.3357" y1="61.9302" x2="58.3357" y2="76.0532" stroke="black" stroke-width="4"/>
<line x1="74.6313" y1="61.9302" x2="74.6313" y2="76.0532" stroke="black" stroke-width="4"/>
<line x1="66.5266" y1="80.3987" x2="66.5266" y2="82.5714" stroke="black" stroke-width="3"/>
</g>
<defs>
<clipPath id="clip0">
<rect width="171.648" height="202.44" fill="white" transform="translate(20.4851 0.00665283)"/>
</clipPath>
</defs>
</svg>
